<!DOCTYPE svg PUBLIC "-//W3C//DTD SVG 1.1//EN" "http://www.w3.org/Graphics/SVG/1.1/DTD/svg11.dtd">
<!-- Uploaded to: SVG Repo, www.svgrepo.com, Transformed by: SVG Repo Mixer Tools -->
<svg height="800px" width="800px" version="1.1" id="Layer_1" xmlns="http://www.w3.org/2000/svg" xmlns:xlink="http://www.w3.org/1999/xlink" viewBox="-51.2 -51.2 614.40 614.40" xml:space="preserve" fill="#ffffff" stroke="#ffffff">
<g id="SVGRepo_bgCarrier" stroke-width="0">
<rect x="-51.2" y="-51.2" width="614.40" height="614.40" rx="307.2" fill="#000000" strokewidth="0"/>
</g>
<g id="SVGRepo_tracerCarrier" stroke-linecap="round" stroke-linejoin="round"/>
<g id="SVGRepo_iconCarrier"> <g> <path style="fill:#FF4240;" d="M363.753,421.151h88.756c34.794,0,56.073-38.197,37.76-67.781l0,0 c-8.094-13.078-22.38-21.036-37.76-21.036l-155.926-0.145l0,0l47.64,78.007C348.382,417.001,355.78,421.151,363.753,421.151z"/> <path style="fill:#FF4240;" d="M148.253,421.151H59.496c-34.794,0-56.073-38.197-37.76-67.781l0,0 c8.094-13.078,22.38-21.036,37.76-21.036l155.926-0.145l0,0l-47.64,78.007C163.625,417.001,156.227,421.151,148.253,421.151z"/> </g> <path style="fill:#FF4240507C5C;" d="M502.996,345.491c-10.901-17.61-29.774-28.125-50.472-28.125l-78.248-0.073L273.559,153.061 l68.87-112.3c3.927-6.401,12.255-8.769,18.962-5.39c3.679,1.854,6.327,5.057,7.452,9.021c1.126,3.962,0.56,8.078-1.592,11.591 l-53.614,87.424c-4.322,7.046-2.112,16.262,4.935,20.583c7.045,4.322,16.262,2.11,20.583-4.933l53.614-87.424 c6.487-10.577,8.262-23.489,4.869-35.424S385.942,14.225,374.86,8.64c-20.502-10.33-45.952-3.092-57.95,16.473l-60.91,99.32 l-60.909-99.319c-8.154-13.298-22.34-21.237-37.948-21.237c-6.901,0-13.818,1.646-20.002,4.764 c-11.082,5.584-19.382,15.632-22.775,27.568c-3.393,11.936-1.618,24.847,4.869,35.424l119.207,194.382l-31.408,51.214l-34.174,0.031 l27.724-45.207c4.322-7.047,2.112-16.262-4.935-20.583c-7.048-4.324-16.263-2.112-20.583,4.933l-37.341,60.889l-78.233,0.073 c-20.713,0-39.585,10.514-50.485,28.126c-11.499,18.577-12.016,41.062-1.384,60.147s30.024,30.479,51.87,30.479h88.758 c13.099,0,25.475-6.945,32.3-18.122l47.522-77.812l27.927-45.539l27.972,45.612l47.476,77.739 c6.827,11.179,19.203,18.122,32.302,18.122h88.758c21.847,0,41.237-11.394,51.87-30.479 C515.014,386.553,514.496,364.068,502.996,345.491z M33.775,391.07c-5.271-9.464-5.015-20.613,0.687-29.825 c5.405-8.732,14.764-13.945,25.047-13.945l129.217-0.121l-33.721,55.215c-1.426,2.338-4.014,3.788-6.753,3.788H59.496 C48.663,406.184,39.048,400.534,33.775,391.07z M143.162,44.394c1.127-3.963,3.773-7.168,7.452-9.021 c2.056-1.036,4.254-1.561,6.532-1.561c5.114,0,9.76,2.598,12.43,6.952L339.143,317.26l-34.174-0.031L144.756,55.983 C142.603,52.472,142.037,48.356,143.162,44.394z M478.23,391.07c-5.271,9.464-14.886,15.114-25.721,15.114h-88.758 c-2.739,0-5.327-1.452-6.755-3.79l-33.719-55.215l129.232,0.121c10.269,0,19.628,5.213,25.034,13.946 C483.246,370.458,483.503,381.607,478.23,391.07z"/> <path style="fill:#FF4240;" d="M295.514,493.159h-79.022c-7.59,0-13.743-6.153-13.743-13.743v-33.67 c0-7.59,6.153-13.743,13.743-13.743h79.022c7.59,0,13.743,6.153,13.743,13.743v33.67 C309.258,487.006,303.105,493.159,295.514,493.159z"/> <path style="fill:#FF4240507C5C;" d="M295.514,508.125h-79.022c-15.831,0-28.711-12.879-28.711-28.71v-33.67 c0-15.831,12.879-28.71,28.711-28.71h79.022c15.831,0,28.711,12.879,28.711,28.71v33.67 C324.225,495.246,311.344,508.125,295.514,508.125z M217.716,478.191h76.575v-31.221h-76.575V478.191z"/> </g>
</svg>